<svg width="63" height="46" viewBox="0 0 63 46" fill="none" xmlns="http://www.w3.org/2000/svg">
<path d="M0.728938 4.88092C0.496831 4.73132 0.429949 4.42188 0.579546 4.18977L3.01747 0.407372C3.16707 0.175266 3.47651 0.108384 3.70862 0.257987C3.94072 0.40759 4.00761 0.717025 3.858 0.949132L1.69096 4.31127L5.0531 6.47831C5.2852 6.62791 5.35208 6.93734 5.20248 7.16945C5.05288 7.40156 4.74344 7.46844 4.51133 7.31884L0.728938 4.88092ZM61.2831 45.0071C54.5931 26.1062 48.1088 14.2818 39.0683 8.0761C30.0576 1.89083 18.3893 1.21359 1.10545 4.94937L0.894184 3.97194C18.2573 0.219015 30.275 0.827155 39.6343 7.25165C48.9638 13.6557 55.5333 25.7655 62.2258 44.6734L61.2831 45.0071Z" fill="#FF5ABE"/>
</svg>
